# Blender v2.90.1 OBJ File: 'muzzleflash.blend'
# www.blender.org
mtllib muzzleflash_cone.mtl
o cone_Cube.001
v -0.000000 -1.000000 -0.000000
v 0.342020 -0.939693 -0.000000
v 0.642788 -0.766044 -0.000000
v 0.866025 -0.500000 -0.000000
v 0.984808 -0.173648 -0.000000
v 0.984808 0.173648 -0.000000
v 0.866025 0.500000 0.000000
v 0.642788 0.766044 0.000000
v 0.342020 0.939693 0.000000
v 0.000000 1.000000 0.000000
v -0.342020 0.939693 0.000000
v -0.642788 0.766045 0.000000
v -0.866025 0.500000 0.000000
v -0.984808 0.173649 -0.000000
v -0.984808 -0.173648 -0.000000
v -0.866026 -0.499999 -0.000000
v -0.642788 -0.766044 -0.000000
v -0.342021 -0.939692 -0.000000
v -0.000000 -0.707235 -0.109383
v 0.241889 -0.664584 -0.109383
v 0.454602 -0.541774 -0.109383
v 0.612484 -0.353618 -0.109383
v 0.696491 -0.122810 -0.109383
v 0.696491 0.122810 -0.109383
v 0.612484 0.353618 -0.109383
v 0.454602 0.541774 -0.109383
v 0.241889 0.664584 -0.109383
v -0.000000 0.707236 -0.109383
v -0.241889 0.664584 -0.109383
v -0.454602 0.541774 -0.109383
v -0.612484 0.353618 -0.109384
v -0.696491 0.122810 -0.109384
v -0.696491 -0.122810 -0.109384
v -0.612484 -0.353617 -0.109384
v -0.454603 -0.541773 -0.109384
v -0.241889 -0.664584 -0.109383
v -0.000000 -0.233326 -0.202009
v 0.079802 -0.219255 -0.202009
v 0.149979 -0.178738 -0.202009
v 0.202066 -0.116663 -0.202009
v 0.229781 -0.040517 -0.202009
v 0.229781 0.040517 -0.202009
v 0.202066 0.116663 -0.202009
v 0.149979 0.178738 -0.202009
v 0.079802 0.219255 -0.202009
v -0.000000 0.233326 -0.202009
v -0.079802 0.219255 -0.202009
v -0.149979 0.178738 -0.202009
v -0.202066 0.116663 -0.202009
v -0.229781 0.040517 -0.202009
v -0.229781 -0.040516 -0.202009
v -0.202066 -0.116663 -0.202009
v -0.149979 -0.178738 -0.202009
v -0.079803 -0.219255 -0.202009
vt 0.673649 0.030154
vt 0.622810 0.167708
vt 0.500000 0.146382
vt 0.500000 0.000000
vt 0.826352 0.116978
vt 0.730808 0.229113
vt 0.939693 0.250000
vt 0.810966 0.323191
vt 1.000000 0.413176
vt 0.853618 0.438595
vt 1.000000 0.586824
vt 0.853618 0.561405
vt 0.939693 0.750000
vt 0.810966 0.676809
vt 0.826352 0.883022
vt 0.730808 0.770887
vt 0.673648 0.969846
vt 0.622810 0.832292
vt 0.500000 1.000000
vt 0.500000 0.853618
vt 0.326352 0.969846
vt 0.377190 0.832292
vt 0.173648 0.883022
vt 0.269192 0.770887
vt 0.060307 0.750000
vt 0.189034 0.676809
vt 0.000000 0.586824
vt 0.146382 0.561405
vt 0.000000 0.413176
vt 0.146382 0.438595
vt 0.060307 0.250000
vt 0.189034 0.323191
vt 0.173648 0.116978
vt 0.269192 0.229113
vt 0.326352 0.030154
vt 0.377190 0.167708
vt 0.540517 0.390373
vt 0.500000 0.383337
vt 0.576146 0.410631
vt 0.602592 0.441669
vt 0.616663 0.479742
vt 0.616663 0.520258
vt 0.602592 0.558332
vt 0.576146 0.589369
vt 0.540517 0.609627
vt 0.500000 0.616663
vt 0.459483 0.609627
vt 0.423854 0.589369
vt 0.397408 0.558332
vt 0.383337 0.520258
vt 0.383337 0.479742
vt 0.397408 0.441669
vt 0.423854 0.410631
vt 0.459483 0.390373
vn -0.1197 -0.3289 -0.9367
vn -0.0958 -0.2633 -0.9599
vn 0.0000 -0.2802 -0.9599
vn 0.0000 -0.3500 -0.9367
vn -0.2250 -0.2681 -0.9367
vn -0.1801 -0.2147 -0.9599
vn -0.3031 -0.1750 -0.9367
vn -0.2427 -0.1401 -0.9599
vn -0.3446 -0.0608 -0.9367
vn -0.2760 -0.0486 -0.9599
vn -0.3446 0.0608 -0.9367
vn -0.2760 0.0486 -0.9599
vn -0.3031 0.1750 -0.9367
vn -0.2427 0.1401 -0.9599
vn -0.2250 0.2681 -0.9367
vn -0.1801 0.2147 -0.9599
vn -0.1197 0.3289 -0.9367
vn -0.0958 0.2633 -0.9599
vn 0.0000 0.3500 -0.9367
vn 0.0000 0.2802 -0.9599
vn 0.1197 0.3289 -0.9367
vn 0.0958 0.2633 -0.9599
vn 0.2250 0.2681 -0.9367
vn 0.1801 0.2147 -0.9599
vn 0.3031 0.1750 -0.9367
vn 0.2427 0.1401 -0.9599
vn 0.3446 0.0608 -0.9367
vn 0.2760 0.0486 -0.9599
vn 0.3446 -0.0608 -0.9367
vn 0.2760 -0.0486 -0.9599
vn 0.3031 -0.1750 -0.9367
vn 0.2427 -0.1401 -0.9599
vn 0.2250 -0.2681 -0.9367
vn 0.1801 -0.2147 -0.9599
vn 0.1197 -0.3289 -0.9367
vn 0.0958 -0.2633 -0.9599
vn -0.0656 -0.1802 -0.9814
vn 0.0000 -0.1918 -0.9814
vn -0.1233 -0.1469 -0.9814
vn -0.1661 -0.0959 -0.9814
vn -0.1889 -0.0333 -0.9814
vn -0.1889 0.0333 -0.9814
vn -0.1661 0.0959 -0.9814
vn -0.1233 0.1469 -0.9814
vn -0.0656 0.1802 -0.9814
vn 0.0000 0.1918 -0.9814
vn 0.0656 0.1802 -0.9814
vn 0.1233 0.1469 -0.9814
vn 0.1661 0.0959 -0.9814
vn 0.1889 0.0333 -0.9814
vn 0.1889 -0.0333 -0.9814
vn 0.1661 -0.0959 -0.9814
vn 0.1233 -0.1469 -0.9814
vn 0.0656 -0.1802 -0.9814
usemtl None
s 1
f 18/1/1 36/2/2 19/3/3 1/4/4
f 17/5/5 35/6/6 36/2/2 18/1/1
f 16/7/7 34/8/8 35/6/6 17/5/5
f 15/9/9 33/10/10 34/8/8 16/7/7
f 14/11/11 32/12/12 33/10/10 15/9/9
f 13/13/13 31/14/14 32/12/12 14/11/11
f 12/15/15 30/16/16 31/14/14 13/13/13
f 11/17/17 29/18/18 30/16/16 12/15/15
f 10/19/19 28/20/20 29/18/18 11/17/17
f 9/21/21 27/22/22 28/20/20 10/19/19
f 8/23/23 26/24/24 27/22/22 9/21/21
f 7/25/25 25/26/26 26/24/24 8/23/23
f 6/27/27 24/28/28 25/26/26 7/25/25
f 5/29/29 23/30/30 24/28/28 6/27/27
f 4/31/31 22/32/32 23/30/30 5/29/29
f 3/33/33 21/34/34 22/32/32 4/31/31
f 2/35/35 20/36/36 21/34/34 3/33/33
f 1/4/4 19/3/3 20/36/36 2/35/35
f 36/2/2 54/37/37 37/38/38 19/3/3
f 35/6/6 53/39/39 54/37/37 36/2/2
f 34/8/8 52/40/40 53/39/39 35/6/6
f 33/10/10 51/41/41 52/40/40 34/8/8
f 32/12/12 50/42/42 51/41/41 33/10/10
f 31/14/14 49/43/43 50/42/42 32/12/12
f 30/16/16 48/44/44 49/43/43 31/14/14
f 29/18/18 47/45/45 48/44/44 30/16/16
f 28/20/20 46/46/46 47/45/45 29/18/18
f 27/22/22 45/47/47 46/46/46 28/20/20
f 26/24/24 44/48/48 45/47/47 27/22/22
f 25/26/26 43/49/49 44/48/48 26/24/24
f 24/28/28 42/50/50 43/49/49 25/26/26
f 23/30/30 41/51/51 42/50/50 24/28/28
f 22/32/32 40/52/52 41/51/51 23/30/30
f 21/34/34 39/53/53 40/52/52 22/32/32
f 20/36/36 38/54/54 39/53/53 21/34/34
f 19/3/3 37/38/38 38/54/54 20/36/36
