# Blender v2.90.1 OBJ File: 'muzzleflash.blend'
# www.blender.org
mtllib muzzleflash.mtl
o Muzzle_Cube
v 1.000000 0.000000 0.000000
v -1.000000 0.000000 0.000000
v 1.000000 0.000000 2.000000
v -1.000000 0.000000 2.000000
v 0.000000 1.000000 0.000000
v -0.000000 -1.000000 0.000000
v 0.000000 1.000000 2.000000
v -0.000000 -1.000000 2.000000
vt 1.000000 1.000000
vt 0.000000 1.000000
vt 0.000000 0.000000
vt 1.000000 0.000000
vt 1.000000 1.000000
vt 0.000000 1.000000
vt 0.000000 0.000000
vt 1.000000 0.000000
vn 0.0000 1.0000 0.0000
vn -1.0000 0.0000 0.0000
usemtl Material
s off
f 4/1/1 3/2/1 1/3/1 2/4/1
f 8/5/2 7/6/2 5/7/2 6/8/2
